<svg width="135" height="25" viewBox="0 0 135 25" fill="none" xmlns="http://www.w3.org/2000/svg">
<path fill-rule="evenodd" clip-rule="evenodd" d="M13.056 22.1428C11.3463 22.1428 9.71429 21.7571 8.31543 20.9857L12.6674 16.5114L13.8331 16.5885C14.5292 16.5731 15.2129 16.4031 15.8341 16.0912C16.4553 15.7792 16.9982 15.3331 17.423 14.7856C17.8479 14.2381 18.1438 13.6032 18.2891 12.9273C18.4345 12.2515 18.4255 11.5519 18.2629 10.88L15.9314 13.2714L13.1337 12.7314L12.5897 10.1085L15.0766 7.7171C14.688 7.56281 14.2994 7.48567 13.8331 7.48567C12.5965 7.48567 11.4105 7.97332 10.536 8.84135C9.66155 9.70937 9.17029 10.8867 9.17029 12.1142C9.17029 12.5771 9.32572 13.1171 9.48114 13.58L5.05143 18.0542C3.96343 16.5114 3.34172 14.66 3.34172 12.6542C3.34172 7.40853 7.69372 3.08853 13.056 3.08853C18.3406 3.08853 22.6926 7.40853 22.6926 12.6542C22.6926 17.9 18.3406 22.22 13.056 22.22V22.1428ZM13.056 0.619957C6.21714 0.542814 0.777145 5.94281 0.777145 12.6542C0.777145 19.3657 6.21714 24.6885 13.056 24.6885C19.8171 24.6885 25.2571 19.2885 25.2571 12.6542C25.2571 6.01996 19.8171 0.619957 13.056 0.619957Z" fill="white"/>
<path fill-rule="evenodd" clip-rule="evenodd" d="M73.3623 22.2972C74.2171 22.2972 74.8389 21.6029 75.1497 20.7543L75.7714 19.3657L72.2743 11.3429C72.1189 11.0343 71.8857 10.9572 71.4971 10.9572V9.80001H72.1189C72.9737 9.80001 73.2846 9.9543 73.6731 10.88L76.16 16.8972L76.4709 17.9L76.8594 16.8972L79.2686 10.88C79.5794 9.9543 79.8903 9.80001 80.8229 9.80001H81.3669V10.9572H81.2114C80.8229 10.9572 80.6674 10.9572 80.512 11.3429L76.3154 21.4486C75.7714 22.6829 74.7611 23.4543 73.5177 23.4543C72.1189 23.4543 71.3417 22.5286 71.3417 22.5286L71.9634 21.6029C71.9634 21.6029 72.5851 22.2972 73.5177 22.2972H73.3623ZM55.0217 18.2857H55.7989C56.032 18.2857 56.1874 18.1314 56.1874 17.8229L57.1977 5.94287H58.5966L62.2491 13.8114L62.8709 15.3543L63.648 13.8114L67.1451 5.94287H68.544L69.4766 17.8229C69.4766 18.1314 69.632 18.2857 69.9429 18.2857H70.6423V19.4429H69.3211C68.544 19.4429 68.1554 19.0572 68.1554 18.2857L67.456 10.1086V8.18001L66.6789 10.1086L63.4149 16.8972H62.2491L59.0629 10.1086L58.2857 8.18001V10.1086L57.5086 18.2857C57.5086 19.0572 57.1977 19.4429 56.3429 19.4429H55.0217V18.2857ZM49.1154 14.4286L46.9394 11.3429C46.7063 11.0343 46.4731 10.9572 46.0846 10.9572H45.696V9.80001H46.3954C47.4057 9.80001 47.6389 9.9543 48.1829 10.88L49.7371 12.8857L50.1257 13.5029L50.4366 12.8857L51.9131 10.8029C52.4571 9.87716 52.6903 9.72287 53.7006 9.72287H54.4777V10.88H54.0114C53.6229 10.88 53.312 10.88 53.0789 11.2657L50.9806 14.3514L54.4 19.3657H52.8457L50.5143 15.74L50.1257 15.2772L49.7371 15.74L47.4057 19.3657H45.8514L49.2709 14.3514L49.1154 14.4286ZM42.1211 5.94287H43.52V7.64001H42.2766V5.94287H42.1211ZM42.1989 11.3429C42.1989 11.1114 42.0434 10.9572 41.8103 10.9572H41.0331V9.80001H42.3543C43.1314 9.80001 43.52 10.1086 43.52 10.9572V17.9C43.52 18.2086 43.6754 18.2857 43.9863 18.2857H44.7634V19.4429H43.52C42.6651 19.4429 42.2766 19.0572 42.2766 18.2857V11.3429H42.1989ZM32.7954 7.17716H31.552V5.94287H38.8571C39.712 5.94287 40.0229 6.32859 40.0229 7.10001V8.48859H38.8571V7.48573C38.8571 7.17716 38.7017 7.10001 38.4686 7.10001H34.1943V12.1143H39.0903V13.3486H34.1943V19.3657H32.7954V7.02287V7.17716Z" fill="white"/>
<path fill-rule="evenodd" clip-rule="evenodd" d="M132.425 9.49142L133.669 9.56856C133.824 9.6457 134.213 9.95427 134.213 10.4943L134.057 11.0343C133.746 11.5743 133.358 11.5743 132.425 11.5743V16.3571C132.425 17.2057 132.736 17.2828 133.435 17.2828C134.213 17.2828 134.368 17.9 134.368 18.2857C134.368 19.4428 133.047 19.52 132.27 19.52C129.627 19.52 129.55 17.9771 129.55 16.8971V11.5743L128.617 11.4971C128.617 11.42 128.151 11.1886 128.151 10.4943V10.0314C128.462 9.49141 129.083 9.49142 129.55 9.49142V8.10284C129.55 7.63999 129.55 7.17713 129.938 6.79141C129.938 6.71427 130.327 6.32856 130.949 6.32856L131.493 6.4057C132.347 6.71427 132.347 7.56284 132.425 8.10284V9.49142ZM125.12 13.1943C125.042 12.8857 124.965 12.5771 124.731 12.2686C124.421 11.7286 123.799 11.4971 123.177 11.4971C121.623 11.4971 121.234 12.5771 121.001 13.1943H125.12ZM121.001 15.3543C121.001 15.8171 121.157 16.3571 121.623 16.8971C122.245 17.5143 123.022 17.5143 123.177 17.5143C123.954 17.5143 124.421 17.2057 124.576 16.9743L124.965 16.6657C125.275 16.4343 125.509 16.3571 125.742 16.3571C126.519 16.3571 127.063 16.8971 127.063 17.5914C127.063 18.0543 126.83 18.44 126.286 18.8257C125.36 19.4138 124.276 19.7097 123.177 19.6743C119.291 19.6743 118.048 16.8971 118.048 14.5057C118.048 11.5743 119.991 9.25999 123.177 9.25999C126.752 9.25999 127.84 12.1143 127.84 13.9657C127.84 15.2771 127.063 15.2771 126.597 15.3543H121.001ZM114.551 13.1943C114.473 12.8857 114.395 12.5771 114.162 12.2686C113.851 11.7286 113.23 11.4971 112.608 11.4971C111.054 11.4971 110.665 12.5771 110.432 13.1943H114.551ZM110.432 15.3543C110.51 15.8171 110.587 16.3571 111.054 16.8971C111.675 17.5143 112.453 17.5143 112.608 17.5143C113.385 17.5143 113.851 17.2057 114.085 16.9743L114.395 16.6657C114.706 16.4343 115.017 16.3571 115.173 16.3571C115.95 16.3571 116.494 16.8971 116.494 17.5914C116.494 18.0543 116.338 18.44 115.717 18.8257C114.791 19.4138 113.707 19.7097 112.608 19.6743C108.722 19.6743 107.479 16.8971 107.479 14.5057C107.479 11.5743 109.422 9.25999 112.608 9.25999C116.183 9.25999 117.271 12.1143 117.271 13.9657C117.271 15.2771 116.494 15.2771 116.027 15.3543H110.432ZM100.873 11.1886C100.873 10.7257 100.873 10.1857 101.339 9.72284C101.495 9.56856 101.806 9.41427 102.272 9.41427L102.894 9.49142C103.671 9.87713 103.671 10.7257 103.671 11.0343V11.3428C103.671 11.0343 103.826 10.7257 104.059 10.4171C104.274 10.0794 104.573 9.8025 104.927 9.61326C105.281 9.42402 105.678 9.3289 106.08 9.33713C107.09 9.33713 107.479 9.95427 107.479 10.5714C107.479 10.9571 107.401 11.3428 107.168 11.4971C106.857 11.8057 106.469 11.8828 106.158 11.8828H105.381C103.826 12.1914 103.826 13.6571 103.826 14.7371V17.8228C103.826 18.2086 103.826 18.8257 103.438 19.1343C103.205 19.4428 102.816 19.5971 102.427 19.5971L101.883 19.52C100.951 19.2114 100.873 18.3628 100.873 17.7457V11.1886ZM98.0754 9.49142L99.3189 9.56856C99.4743 9.6457 99.8629 9.95427 99.8629 10.4943C99.8629 10.7257 99.8629 10.88 99.7074 11.0343C99.4743 11.5743 99.0857 11.5743 98.0754 11.5743V16.3571C98.0754 17.2057 98.3863 17.2828 99.0857 17.2828C99.8629 17.2828 100.018 17.9 100.018 18.2857C100.018 19.4428 98.6971 19.52 97.92 19.52C95.2777 19.52 95.2 17.9771 95.2 16.8971V11.5743L94.3451 11.4971C94.1897 11.42 93.8011 11.1886 93.8011 10.4943L93.8789 10.0314C94.1897 9.49141 94.7337 9.49142 95.2 9.49142V8.10284C95.2 7.63999 95.2 7.17713 95.5886 6.79141C95.6663 6.71427 95.9771 6.32856 96.6766 6.32856L97.2206 6.4057C97.9977 6.71427 97.9977 7.56284 97.9977 8.10284V9.49142H98.0754ZM93.1794 8.71999C93.1794 9.56856 92.3246 10.1086 91.6251 10.1086C91.1589 10.1086 90.848 9.95427 90.4594 9.41427L90.1486 9.02856C89.6823 8.48856 88.9829 8.10284 87.8171 8.10284C86.496 8.10284 85.4857 8.5657 85.4857 9.49142C85.4857 9.79999 85.6411 10.0314 85.8743 10.2628C86.1851 10.4943 86.6514 10.6486 87.6617 10.88C90.6926 11.6514 91.0034 11.8057 91.7029 12.2686C92.48 12.8086 93.4126 13.8114 93.4126 15.3543C93.4126 16.7428 92.7131 17.9 91.8583 18.5943C90.6554 19.4286 89.2044 19.8362 87.7394 19.7514C86.3406 19.7514 85.0971 19.52 84.0869 18.98C81.9886 17.9771 81.9109 16.6657 81.9109 16.3571C81.9109 15.4314 82.688 14.8143 83.4651 14.8143C84.0091 14.8143 84.4754 15.2 84.864 15.8943C85.3303 16.5114 85.7966 17.2057 87.8171 17.2057C88.2834 17.2057 88.7497 17.2057 89.1383 16.9743C89.2937 16.9743 90.2263 16.5886 90.2263 15.5857C90.2263 15.0457 89.9931 14.8143 89.6046 14.5057C89.216 14.2743 88.9829 14.1971 87.1177 13.7343C84.7863 13.1171 82.2994 12.5 82.2994 9.6457C82.2994 7.25427 84.2423 5.55713 87.8171 5.55713C91.2366 5.55713 93.1794 7.33141 93.1794 8.64284V8.71999Z" fill="white"/>
</svg>
