<svg width="311" height="311" viewBox="0 0 311 311" fill="none" xmlns="http://www.w3.org/2000/svg">
<path fill-rule="evenodd" clip-rule="evenodd" d="M207.985 67.6258C211.988 52.6887 203.123 37.3353 188.186 33.3329C173.249 29.3305 157.896 38.1948 153.893 53.1319L145.912 82.9201L130.492 56.2129C122.76 42.8207 105.636 38.2322 92.2435 45.9642C78.8513 53.6962 74.2628 70.8207 81.9948 84.2129L97.415 110.921L67.6249 102.939C52.6879 98.9368 37.3344 107.801 33.3321 122.738C29.3297 137.675 38.194 153.029 53.131 157.031L82.9214 165.013L56.2132 180.433C42.821 188.165 38.2325 205.29 45.9645 218.682C53.6964 232.074 70.821 236.663 84.2132 228.931L110.92 213.512L102.938 243.3C98.9356 258.237 107.8 273.59 122.737 277.593C137.674 281.595 153.027 272.731 157.03 257.794L165.012 228.003L180.433 254.713C188.165 268.105 205.289 272.694 218.682 264.962C232.074 257.23 236.662 240.105 228.93 226.713L213.51 200.005L243.299 207.986C258.236 211.989 273.59 203.124 277.592 188.187C281.594 173.25 272.73 157.897 257.793 153.895L228.004 145.913L254.713 130.493C268.105 122.761 272.694 105.636 264.962 92.2438C257.23 78.8517 240.105 74.2632 226.713 81.9951L200.003 97.4163L207.985 67.6258Z" fill="#917D6E"/>
<g opacity="0.5">
<path d="M95.6357 132.728L98.945 133.615L98.7964 134.169L90.6872 145.769L85.9879 144.509L84.7561 130.442L84.9134 129.855L88.1565 130.724L89.1047 142.408L89.1709 142.426L95.6357 132.728Z" fill="white"/>
<path d="M102.026 149.156C100.151 148.654 98.9847 147.666 98.5284 146.192C98.072 144.718 98.1177 142.959 98.6653 140.915C99.2187 138.85 100.062 137.293 101.194 136.245C102.354 135.181 103.86 134.897 105.714 135.393C106.773 135.677 107.561 136.087 108.08 136.622C108.605 137.135 108.963 137.651 109.155 138.168C109.348 138.686 109.448 139.062 109.456 139.297L109.522 139.315L110.239 136.641L113.713 137.572L110.122 150.976L107.21 150.196L107.232 147.86L107.166 147.842C107.048 148.02 106.768 148.271 106.326 148.596C105.912 148.904 105.339 149.147 104.606 149.323C103.901 149.484 103.041 149.428 102.026 149.156ZM104.167 146.724C105.403 147.055 106.332 146.896 106.955 146.248C107.606 145.583 108.083 144.686 108.386 143.555C108.706 142.359 108.745 141.332 108.502 140.475C108.259 139.618 107.53 139.026 106.317 138.701C105.457 138.471 104.734 138.475 104.15 138.715C103.587 138.96 103.125 139.361 102.764 139.916C102.43 140.456 102.164 141.095 101.966 141.835C101.768 142.574 101.675 143.272 101.689 143.928C101.724 144.59 101.924 145.168 102.288 145.661C102.681 146.139 103.307 146.493 104.167 146.724Z" fill="white"/>
<path d="M112.442 151.598L116.017 138.259L118.896 139.03L118.698 142.019L118.764 142.036C118.804 141.977 118.928 141.824 119.136 141.577C119.372 141.314 119.705 141.042 120.135 140.761C120.587 140.486 121.134 140.294 121.778 140.187C122.449 140.064 123.226 140.121 124.109 140.357C125.322 140.683 126.196 141.173 126.73 141.829C127.263 142.484 127.574 143.22 127.663 144.036C127.758 144.831 127.733 145.628 127.59 146.429C127.446 147.229 127.29 147.944 127.121 148.575L125.382 155.065L122.073 154.178L123.82 147.656C124.013 146.938 124.121 146.268 124.146 145.646C124.177 145.001 124.018 144.446 123.67 143.98C123.35 143.498 122.771 143.145 121.932 142.92C121.05 142.684 120.325 142.699 119.756 142.966C119.188 143.234 118.731 143.659 118.386 144.242C118.046 144.804 117.783 145.432 117.597 146.128L115.884 152.52L112.442 151.598Z" fill="white"/>
<path d="M133.562 157.606C131.532 157.063 130.253 156.056 129.725 154.586C129.202 153.094 129.212 151.337 129.754 149.315C130.319 147.206 131.212 145.64 132.432 144.615C133.652 143.59 135.255 143.344 137.241 143.876C138.101 144.107 138.781 144.44 139.278 144.877C139.804 145.297 140.183 145.736 140.415 146.195C140.669 146.659 140.832 147.064 140.905 147.41C140.978 147.755 141.017 147.964 141.021 148.035L141.088 148.053L143.202 140.16L146.677 141.091L141.757 159.453L138.845 158.673L138.92 156.141L138.854 156.123C138.82 156.161 138.677 156.297 138.425 156.533C138.195 156.774 137.846 157.018 137.378 157.266C136.931 157.519 136.387 157.699 135.743 157.806C135.105 157.892 134.378 157.825 133.562 157.606ZM135.406 155.094C136.663 155.431 137.656 155.301 138.383 154.704C139.139 154.091 139.674 153.197 139.988 152.023C140.291 150.892 140.277 149.886 139.946 149.005C139.642 148.108 138.873 147.494 137.637 147.163C136.733 146.921 135.963 146.924 135.329 147.174C134.722 147.408 134.238 147.802 133.877 148.358C133.521 148.892 133.252 149.496 133.072 150.17C132.891 150.844 132.805 151.519 132.812 152.197C132.848 152.859 133.056 153.451 133.436 153.972C133.845 154.478 134.501 154.852 135.406 155.094Z" fill="white"/>
<path d="M149.145 161.782C147.27 161.279 146.104 160.291 145.648 158.817C145.191 157.344 145.237 155.585 145.785 153.541C146.338 151.475 147.181 149.919 148.313 148.87C149.473 147.806 150.98 147.522 152.833 148.019C153.892 148.303 154.681 148.712 155.199 149.247C155.724 149.761 156.082 150.276 156.275 150.794C156.467 151.311 156.567 151.688 156.575 151.923L156.641 151.941L157.358 149.266L160.833 150.198L157.241 163.602L154.329 162.821L154.352 160.486L154.286 160.468C154.167 160.646 153.887 160.897 153.445 161.221C153.031 161.53 152.458 161.772 151.725 161.949C151.02 162.11 150.16 162.054 149.145 161.782ZM151.287 159.35C152.522 159.681 153.451 159.522 154.074 158.873C154.725 158.209 155.202 157.311 155.505 156.181C155.826 154.985 155.864 153.958 155.621 153.101C155.378 152.243 154.65 151.652 153.436 151.327C152.576 151.096 151.853 151.101 151.269 151.34C150.707 151.586 150.245 151.986 149.883 152.542C149.549 153.082 149.283 153.721 149.085 154.46C148.887 155.2 148.795 155.897 148.808 156.553C148.844 157.215 149.043 157.793 149.408 158.287C149.8 158.765 150.426 159.119 151.287 159.35Z" fill="white"/>
<path d="M159.926 164.321L164.846 145.96L168.155 146.846L163.235 165.208L159.926 164.321Z" fill="white"/>
<path d="M172.293 151.695C171.559 151.522 171.117 151.229 170.968 150.816C170.846 150.387 170.852 149.923 170.986 149.423C171.115 148.944 171.347 148.564 171.683 148.281C172.018 147.998 172.539 147.951 173.245 148.14C173.929 148.324 174.335 148.619 174.462 149.026C174.612 149.439 174.623 149.884 174.494 150.363C174.36 150.863 174.125 151.254 173.789 151.537C173.481 151.804 172.983 151.857 172.293 151.695ZM166.587 166.106L170.179 152.702L173.554 153.606L169.963 167.01L166.587 166.106Z" fill="white"/>
<path d="M172.843 167.782L173.489 165.369L184.019 159.032L176.242 156.948L176.915 154.437L188.63 157.576L187.984 159.989L177.619 166.37L185.694 168.534L185.021 171.045L172.843 167.782Z" fill="white"/>
<path d="M192.225 173.325C190.349 172.823 189.184 171.834 188.727 170.361C188.271 168.887 188.316 167.128 188.864 165.084C189.418 163.019 190.26 161.462 191.393 160.413C192.553 159.349 194.059 159.066 195.912 159.562C196.971 159.846 197.76 160.255 198.279 160.791C198.803 161.304 199.162 161.819 199.354 162.337C199.547 162.855 199.647 163.231 199.655 163.466L199.721 163.484L200.437 160.81L203.912 161.741L200.321 175.145L197.408 174.365L197.431 172.029L197.365 172.011C197.247 172.189 196.966 172.44 196.525 172.765C196.111 173.073 195.538 173.316 194.805 173.492C194.1 173.653 193.24 173.597 192.225 173.325ZM194.366 170.893C195.602 171.224 196.531 171.065 197.154 170.416C197.805 169.752 198.282 168.854 198.585 167.724C198.905 166.528 198.944 165.501 198.701 164.644C198.458 163.786 197.729 163.195 196.516 162.87C195.655 162.639 194.933 162.644 194.349 162.883C193.786 163.129 193.324 163.529 192.963 164.085C192.629 164.625 192.363 165.264 192.165 166.003C191.967 166.743 191.874 167.44 191.888 168.096C191.923 168.758 192.123 169.336 192.487 169.83C192.879 170.308 193.506 170.662 194.366 170.893Z" fill="white"/>
<path d="M202.641 175.767L206.233 162.362L209.178 163.152L208.434 166.063L208.5 166.081C208.545 166 208.683 165.839 208.913 165.597C209.149 165.334 209.468 165.07 209.87 164.805C210.278 164.518 210.771 164.312 211.348 164.188C211.931 164.041 212.598 164.068 213.348 164.269C214.451 164.565 215.2 165.08 215.594 165.815C215.994 166.528 216.211 167.308 216.244 168.156L216.31 168.174C216.355 168.093 216.493 167.931 216.723 167.69C216.981 167.433 217.322 167.175 217.746 166.916C218.198 166.641 218.724 166.444 219.324 166.325C219.929 166.184 220.618 166.217 221.39 166.424C222.25 166.654 222.896 167.025 223.326 167.537C223.762 168.027 224.048 168.593 224.183 169.235C224.347 169.861 224.399 170.504 224.34 171.164C224.304 171.83 224.207 172.457 224.05 173.044C223.92 173.615 223.806 174.085 223.707 174.455L221.968 180.945L219.122 180.183L220.87 173.66C220.957 173.334 221.048 172.95 221.142 172.51C221.243 172.047 221.271 171.589 221.227 171.134C221.189 170.658 221.032 170.231 220.754 169.854C220.477 169.477 220.03 169.205 219.412 169.04C218.64 168.833 218 168.883 217.492 169.189C216.99 169.474 216.577 169.911 216.254 170.501C215.936 171.068 215.687 171.689 215.507 172.363L213.794 178.755L210.948 177.992L212.696 171.47C212.783 171.144 212.874 170.76 212.968 170.319C213.069 169.857 213.097 169.398 213.053 168.944C213.015 168.468 212.858 168.041 212.58 167.664C212.303 167.286 211.856 167.015 211.238 166.849C210.466 166.643 209.826 166.692 209.318 166.999C208.816 167.284 208.403 167.721 208.08 168.31C207.762 168.878 207.513 169.498 207.333 170.172L205.62 176.565L202.641 175.767Z" fill="white"/>
</g>
</svg>
