<svg width="408" height="257" viewBox="0 0 408 257" fill="none" xmlns="http://www.w3.org/2000/svg">
<path fill-rule="evenodd" clip-rule="evenodd" d="M133.364 181.775L32.2235 221.868L0 140.55L354.554 0L398.557 74.3437L335.003 126.985L387.275 114.233L408 199.213L171.14 257L133.364 181.775Z" fill="#C0BAE9"/>
<g opacity="0.5">
<path d="M195.717 160.52L194.347 157.059L200.836 154.491L198.552 148.723L198.48 148.752C198.475 148.809 198.439 149.032 198.37 149.421C198.325 149.8 198.187 150.258 197.955 150.794C197.722 151.331 197.351 151.867 196.84 152.403C196.344 152.905 195.639 153.337 194.726 153.699C192.539 154.564 190.689 154.491 189.176 153.477C187.663 152.464 186.464 150.84 185.58 148.605C184.657 146.274 184.405 144.233 184.824 142.483C185.257 140.699 186.556 139.379 188.718 138.522C189.68 138.142 190.535 137.984 191.283 138.049C192.022 138.09 192.653 138.244 193.175 138.51C193.697 138.775 194.097 139.048 194.374 139.327C194.676 139.597 194.853 139.763 194.905 139.826L194.977 139.797L193.729 136.539L197.514 135.041L203.879 151.118C204.659 153.088 204.809 154.627 204.33 155.734C203.875 156.832 202.83 157.704 201.196 158.351L195.717 160.52ZM194.652 150.142C195.998 149.609 196.81 148.815 197.087 147.76C197.355 146.681 197.232 145.493 196.718 144.195C196.224 142.946 195.526 142.026 194.626 141.438C193.716 140.825 192.588 140.785 191.243 141.318C190.257 141.708 189.574 142.228 189.192 142.88C188.801 143.507 188.619 144.205 188.645 144.973C188.686 145.707 188.853 146.447 189.148 147.192C189.443 147.937 189.825 148.62 190.293 149.241C190.776 149.828 191.367 150.233 192.067 150.457C192.781 150.646 193.643 150.541 194.652 150.142Z" fill="white"/>
<path d="M206.249 148.72L200.384 133.904L203.808 132.549L205.688 136.558C205.584 135.876 205.613 135.142 205.775 134.356C205.95 133.536 206.33 132.774 206.913 132.07C207.511 131.333 208.41 130.727 209.612 130.251L210.153 130.037L211.78 134.147L211.239 134.361C209.172 135.179 207.863 136.086 207.313 137.083C206.752 138.055 206.782 139.322 207.4 140.884L209.926 147.265L206.249 148.72Z" fill="white"/>
<path d="M223.474 142.318C221.432 143.127 219.702 143.005 218.285 141.954C216.868 140.903 215.712 139.247 214.818 136.988C213.914 134.705 213.619 132.696 213.932 130.959C214.26 129.19 215.434 127.905 217.452 127.106C218.606 126.649 219.6 126.492 220.434 126.634C221.26 126.752 221.936 126.985 222.462 127.333C222.989 127.68 223.336 127.96 223.503 128.171L223.575 128.143L222.405 125.187L226.19 123.689L232.055 138.504L228.883 139.76L227.314 137.587L227.242 137.616C227.255 137.861 227.172 138.283 226.993 138.882C226.827 139.448 226.473 140.061 225.928 140.721C225.398 141.348 224.58 141.88 223.474 142.318ZM223.761 138.619C225.107 138.086 225.842 137.309 225.965 136.287C226.103 135.231 225.925 134.079 225.43 132.829C224.907 131.507 224.243 130.533 223.439 129.906C222.635 129.279 221.572 129.228 220.251 129.751C219.313 130.122 218.661 130.616 218.294 131.234C217.951 131.842 217.805 132.526 217.855 133.284C217.92 134.009 218.114 134.78 218.437 135.597C218.761 136.415 219.152 137.121 219.61 137.718C220.093 138.306 220.667 138.704 221.334 138.912C222.015 139.088 222.824 138.99 223.761 138.619Z" fill="white"/>
<path d="M235.895 137.026L231.043 124.77L229.024 125.569L227.997 122.973L230.016 122.174L229.06 119.759C228.546 118.461 228.463 117.41 228.812 116.605C229.184 115.79 229.959 115.15 231.137 114.684L235.03 113.142L236.157 115.99L232.408 117.474L233.693 120.719L237.333 119.277L238.361 121.873L234.72 123.314L239.572 135.57L235.895 137.026Z" fill="white"/>
<path d="M242.003 115.552C241.22 115.89 240.62 115.919 240.203 115.639C239.801 115.326 239.491 114.893 239.272 114.34C239.062 113.812 239.014 113.303 239.126 112.813C239.238 112.324 239.679 111.927 240.448 111.623C241.193 111.328 241.761 111.325 242.154 111.615C242.571 111.895 242.884 112.299 243.093 112.828C243.312 113.38 243.365 113.901 243.253 114.39C243.155 114.846 242.739 115.233 242.003 115.552ZM246.636 132.732L240.771 117.916L244.448 116.461L250.313 131.277L246.636 132.732Z" fill="white"/>
<path d="M258.565 128.01C257.387 128.476 256.384 128.54 255.555 128.201C254.75 127.852 254.09 127.029 253.576 125.731L250.194 117.188L247.959 118.073L246.932 115.477C247.629 115.202 248.141 114.915 248.468 114.619C248.796 114.323 248.939 113.877 248.898 113.281C248.857 112.686 248.603 111.8 248.137 110.622L251.093 109.452L252.591 113.237L255.98 111.896L257.007 114.491L253.619 115.832L257.315 125.169L260.775 123.799L261.917 126.683L258.565 128.01Z" fill="white"/>
<path d="M260.626 108.18C259.842 108.518 259.242 108.547 258.825 108.267C258.423 107.954 258.113 107.521 257.894 106.968C257.685 106.439 257.636 105.931 257.748 105.441C257.86 104.952 258.301 104.555 259.07 104.251C259.815 103.956 260.384 103.953 260.776 104.243C261.193 104.523 261.506 104.927 261.715 105.456C261.934 106.008 261.987 106.529 261.875 107.018C261.778 107.474 261.361 107.861 260.626 108.18ZM265.258 125.36L259.393 110.544L263.07 109.089L268.935 123.904L265.258 125.36Z" fill="white"/>
</g>
</svg>
