<svg width="392" height="392" viewBox="0 0 392 392" fill="none" xmlns="http://www.w3.org/2000/svg">
<path fill-rule="evenodd" clip-rule="evenodd" d="M150.474 367.929C150.474 367.929 188.605 278.828 177.16 236.115C165.716 193.402 88.1427 135.304 88.1427 135.304C88.1427 135.304 50.0119 224.405 61.4568 267.118C72.9017 309.831 150.474 367.929 150.474 367.929ZM206.165 311.7C206.165 311.7 296.132 275.659 318.242 237.363C340.352 199.068 326.581 103.134 326.581 103.134C326.581 103.134 236.615 139.175 214.505 177.471C192.395 215.766 206.165 311.7 206.165 311.7Z" fill="#FFC56D"/>
<g opacity="0.5">
<path d="M98.0715 233.248C97.7755 232.891 97.5072 232.442 97.2664 231.901C97.037 231.373 96.8807 230.808 96.7976 230.205C96.7258 229.616 96.7738 229.032 96.9417 228.452C97.1346 227.875 97.4986 227.365 98.0336 226.921L99.6385 228.855C99.611 228.878 99.5207 228.965 99.3675 229.115C99.228 229.254 99.0952 229.457 98.9691 229.723C98.8681 229.993 98.8446 230.313 98.8985 230.685C98.9525 231.057 99.173 231.477 99.56 231.943C100.015 232.492 100.453 232.824 100.872 232.939C101.306 233.042 101.653 232.986 101.914 232.77C102.215 232.519 102.34 232.196 102.289 231.798C102.262 231.403 102.139 230.961 101.918 230.473C101.698 229.984 101.455 229.467 101.189 228.924C100.948 228.382 100.759 227.833 100.621 227.276C100.494 226.732 100.493 226.201 100.617 225.68C100.756 225.149 101.092 224.661 101.627 224.217C102.409 223.569 103.261 223.395 104.182 223.696C105.117 223.985 105.989 224.617 106.797 225.591C107.366 226.277 107.786 227.006 108.056 227.778C108.339 228.538 108.396 229.29 108.225 230.034C108.069 230.766 107.62 231.44 106.879 232.055L105.274 230.12C105.711 229.781 105.947 229.423 105.982 229.047C106.042 228.673 105.988 228.301 105.82 227.93C105.663 227.574 105.471 227.259 105.243 226.984C104.833 226.491 104.431 226.187 104.037 226.075C103.667 225.964 103.345 226.023 103.071 226.251C102.755 226.512 102.611 226.841 102.637 227.236C102.689 227.633 102.825 228.076 103.045 228.565C103.277 229.067 103.513 229.589 103.754 230.131C104.02 230.675 104.222 231.225 104.36 231.782C104.509 232.353 104.522 232.899 104.398 233.419C104.298 233.941 103.981 234.424 103.446 234.868C102.637 235.54 101.754 235.704 100.799 235.362C99.8684 235.023 98.9593 234.318 98.0715 233.248Z" fill="white"/>
<path d="M102.41 238.057L110.867 231.04L112.386 232.872L110.572 234.412L110.606 234.453C110.672 234.421 110.835 234.379 111.093 234.327C111.364 234.264 111.69 234.237 112.068 234.247C112.461 234.246 112.87 234.334 113.297 234.513C113.737 234.681 114.151 234.998 114.538 235.464C115.107 236.15 115.348 236.818 115.262 237.468C115.19 238.107 114.97 238.707 114.601 239.268L114.636 239.309C114.702 239.277 114.864 239.235 115.122 239.183C115.405 239.134 115.742 239.121 116.132 239.144C116.547 239.17 116.974 239.28 117.412 239.472C117.863 239.654 118.288 239.984 118.686 240.464C119.13 240.999 119.372 241.528 119.412 242.051C119.466 242.562 119.388 243.055 119.18 243.529C118.996 244.006 118.734 244.444 118.393 244.842C118.063 245.255 117.713 245.615 117.343 245.922C116.998 246.232 116.709 246.483 116.475 246.677L112.381 250.074L110.912 248.305L115.028 244.89C115.233 244.719 115.468 244.513 115.731 244.272C116.007 244.019 116.236 243.737 116.417 243.424C116.612 243.101 116.707 242.755 116.704 242.388C116.7 242.02 116.539 241.644 116.22 241.26C115.821 240.78 115.39 240.525 114.924 240.494C114.472 240.452 114.008 240.548 113.53 240.782C113.066 241.005 112.622 241.293 112.196 241.645L108.163 244.992L106.695 243.222L110.81 239.808C111.016 239.637 111.251 239.431 111.514 239.189C111.79 238.937 112.019 238.654 112.2 238.342C112.395 238.018 112.49 237.673 112.486 237.305C112.483 236.938 112.321 236.562 112.003 236.178C111.604 235.698 111.172 235.442 110.707 235.412C110.255 235.37 109.79 235.466 109.313 235.7C108.849 235.922 108.405 236.21 107.979 236.563L103.946 239.909L102.41 238.057Z" fill="white"/>
<path d="M116.753 255.763C115.945 254.789 115.491 253.823 115.39 252.864C115.314 251.907 115.474 251.011 115.868 250.174C116.287 249.34 116.855 248.614 117.571 247.997C118.41 247.277 119.295 246.809 120.227 246.592C121.184 246.377 122.103 246.425 122.986 246.735C123.894 247.047 124.7 247.629 125.406 248.479C126.032 249.234 126.425 250.042 126.585 250.905C126.757 251.782 126.689 252.649 126.381 253.507C126.087 254.353 125.541 255.119 124.743 255.804C124.716 255.827 124.64 255.889 124.517 255.992C124.394 256.094 124.291 256.179 124.208 256.248L119.103 250.095C118.321 250.744 117.877 251.437 117.771 252.174C117.678 252.899 117.91 253.598 118.468 254.27C118.901 254.792 119.389 255.116 119.935 255.242C120.491 255.383 121.011 255.311 121.493 255.027L123.183 257.064C122.212 257.708 121.138 257.949 119.963 257.79C118.802 257.618 117.732 256.943 116.753 255.763ZM120.101 249.372L123.413 253.364C123.498 253.27 123.62 253.111 123.781 252.885C123.952 252.673 124.091 252.408 124.197 252.088C124.314 251.783 124.34 251.437 124.274 251.051C124.209 250.665 124.005 250.267 123.664 249.855C123.209 249.306 122.745 248.985 122.273 248.89C121.825 248.798 121.4 248.815 120.996 248.942C120.616 249.071 120.318 249.215 120.101 249.372Z" fill="white"/>
<path d="M124.742 265.391C124.082 264.595 123.642 263.744 123.423 262.838C123.217 261.92 123.27 261.007 123.582 260.099C123.908 259.18 124.531 258.34 125.45 257.577C126.392 256.842 127.346 256.386 128.312 256.21C129.289 256.048 130.217 256.134 131.098 256.469C131.989 256.818 132.777 257.404 133.46 258.227C134.154 259.064 134.581 259.914 134.741 260.777C134.927 261.642 134.895 262.456 134.647 263.218C134.413 263.968 134.038 264.592 133.524 265.088L131.919 263.154C132.763 262.106 132.69 260.985 131.7 259.791C131.085 259.051 130.381 258.662 129.587 258.626C128.804 258.604 128.049 258.895 127.322 259.498C126.526 260.158 126.048 260.88 125.887 261.662C125.75 262.447 126.001 263.223 126.638 263.992C127.071 264.513 127.583 264.852 128.177 265.008C128.781 265.178 129.391 265.089 130.005 264.742L131.61 266.676C130.986 267.124 130.271 267.393 129.465 267.483C128.671 267.586 127.859 267.472 127.029 267.142C126.21 266.825 125.448 266.242 124.742 265.391ZM134.567 257.552L133.781 256.605L134.049 256.383L136.875 255.602L138.343 257.372L137.973 257.679L134.567 257.552Z" fill="white"/>
<path d="M132.643 274.913C131.835 273.939 131.38 272.973 131.279 272.014C131.204 271.058 131.363 270.161 131.758 269.324C132.177 268.49 132.745 267.764 133.46 267.147C134.299 266.428 135.185 265.959 136.116 265.742C137.073 265.527 137.993 265.575 138.875 265.885C139.783 266.197 140.59 266.779 141.296 267.629C141.922 268.384 142.315 269.193 142.475 270.056C142.646 270.932 142.578 271.799 142.271 272.657C141.977 273.503 141.431 274.269 140.633 274.954C140.605 274.977 140.53 275.039 140.407 275.142C140.283 275.244 140.18 275.33 140.098 275.398L134.993 269.245C134.211 269.894 133.767 270.587 133.66 271.324C133.567 272.05 133.8 272.748 134.358 273.421C134.79 273.942 135.279 274.266 135.824 274.393C136.381 274.533 136.9 274.461 137.382 274.177L139.073 276.214C138.101 276.858 137.028 277.1 135.853 276.94C134.692 276.768 133.622 276.093 132.643 274.913ZM135.991 268.522L139.303 272.514C139.388 272.42 139.51 272.261 139.67 272.035C139.842 271.823 139.981 271.558 140.086 271.238C140.203 270.933 140.229 270.587 140.164 270.201C140.098 269.815 139.895 269.417 139.553 269.005C139.098 268.457 138.634 268.135 138.162 268.04C137.715 267.948 137.289 267.965 136.885 268.092C136.506 268.222 136.208 268.365 135.991 268.522Z" fill="white"/>
</g>
<g opacity="0.5">
<path d="M234.086 251.562L224.935 246.298L226.055 244.352L228.22 245.091L228.246 245.046C228.21 245.006 228.121 244.885 227.978 244.684C227.829 244.459 227.693 244.162 227.568 243.793C227.452 243.408 227.415 242.97 227.46 242.48C227.497 241.965 227.688 241.41 228.031 240.813C228.503 239.993 229.032 239.454 229.617 239.195C230.203 238.936 230.805 238.856 231.424 238.954C232.027 239.043 232.611 239.22 233.173 239.484C233.736 239.748 234.234 240.004 234.666 240.253L239.118 242.815L237.831 245.052L233.357 242.478C232.864 242.195 232.391 241.982 231.937 241.84C231.468 241.689 231.028 241.694 230.618 241.855C230.201 241.993 229.83 242.345 229.504 242.911C229.161 243.508 229.033 244.04 229.122 244.508C229.21 244.975 229.436 245.393 229.8 245.762C230.149 246.121 230.562 246.438 231.039 246.713L235.424 249.236L234.086 251.562Z" fill="white"/>
<path d="M242.776 236.974C242.167 238.033 241.446 238.769 240.612 239.183C239.772 239.573 238.907 239.731 238.017 239.656C237.121 239.557 236.274 239.288 235.475 238.848C234.541 238.331 233.82 237.687 233.31 236.918C232.793 236.124 232.527 235.276 232.51 234.373C232.488 233.447 232.742 232.521 233.274 231.597C233.746 230.776 234.345 230.148 235.072 229.713C235.808 229.263 236.615 229.032 237.495 229.022C238.359 229.003 239.236 229.24 240.124 229.731C240.154 229.748 240.236 229.795 240.37 229.873C240.505 229.95 240.616 230.014 240.706 230.066L236.857 236.755C237.708 237.244 238.484 237.413 239.187 237.261C239.874 237.101 240.428 236.656 240.849 235.925C241.175 235.358 241.303 234.807 241.235 234.271C241.174 233.72 240.934 233.274 240.515 232.934L241.789 230.719C242.699 231.381 243.279 232.27 243.529 233.387C243.765 234.496 243.514 235.691 242.776 236.974ZM235.867 236.096L238.364 231.756C238.251 231.71 238.065 231.653 237.807 231.584C237.558 231.5 237.271 231.464 236.946 231.476C236.631 231.473 236.309 231.566 235.982 231.755C235.655 231.944 235.363 232.262 235.105 232.71C234.762 233.306 234.627 233.834 234.7 234.293C234.767 234.729 234.926 235.108 235.177 235.431C235.422 235.731 235.652 235.952 235.867 236.096Z" fill="white"/>
<path d="M236.7 223.416C236.432 223.917 236.131 224.181 235.798 224.208C235.459 224.211 235.118 224.114 234.775 223.916C234.446 223.728 234.21 223.483 234.066 223.181C233.922 222.88 233.987 222.491 234.261 222.013C234.527 221.551 234.823 221.314 235.147 221.302C235.48 221.275 235.811 221.356 236.139 221.545C236.482 221.742 236.726 221.992 236.87 222.293C237.008 222.571 236.951 222.945 236.7 223.416ZM246.232 230.449L237.037 225.159L238.35 222.877L247.545 228.167L246.232 230.449Z" fill="white"/>
<path d="M251.142 222.433C250.919 222.821 250.603 223.215 250.194 223.615C249.794 224 249.335 224.332 248.817 224.61C248.309 224.873 247.764 225.026 247.183 225.069C246.596 225.089 246.012 224.931 245.43 224.597L246.64 222.494C246.67 222.511 246.779 222.564 246.966 222.652C247.139 222.731 247.367 222.783 247.651 222.807C247.929 222.808 248.226 222.721 248.545 222.547C248.864 222.373 249.169 222.033 249.46 221.526C249.804 220.929 249.957 220.421 249.919 220.003C249.867 219.576 249.7 219.281 249.416 219.118C249.088 218.929 248.753 218.925 248.411 219.105C248.063 219.262 247.704 219.523 247.336 219.887C246.968 220.251 246.583 220.644 246.18 221.068C245.771 221.468 245.338 221.824 244.881 222.136C244.432 222.434 243.951 222.614 243.438 222.676C242.911 222.73 242.357 222.59 241.775 222.255C240.925 221.766 240.481 221.054 240.443 220.119C240.39 219.176 240.668 218.175 241.278 217.116C241.707 216.37 242.225 215.745 242.833 215.241C243.425 214.728 244.087 214.424 244.817 214.328C245.532 214.223 246.293 214.403 247.098 214.866L245.888 216.969C245.434 216.688 245.031 216.595 244.679 216.69C244.32 216.762 244.002 216.936 243.723 217.212C243.454 217.474 243.233 217.754 243.061 218.053C242.752 218.589 242.613 219.055 242.644 219.45C242.669 219.822 242.83 220.093 243.128 220.265C243.472 220.462 243.817 220.482 244.166 220.326C244.508 220.145 244.863 219.873 245.231 219.509C245.608 219.13 246 218.741 246.409 218.341C246.812 217.917 247.242 217.549 247.699 217.237C248.166 216.91 248.655 216.715 249.167 216.652C249.673 216.566 250.217 216.69 250.799 217.025C251.679 217.531 252.125 218.274 252.137 219.254C252.143 220.21 251.811 221.27 251.142 222.433Z" fill="white"/>
<path d="M257.539 211.313C257.213 211.88 256.856 212.31 256.469 212.604C256.076 212.874 255.691 213.059 255.315 213.161C254.948 213.247 254.633 213.294 254.37 213.302C254.116 213.295 253.97 213.29 253.932 213.288L253.906 213.332L259.633 216.627L258.282 218.977L244.993 211.331L246.138 209.34L248.371 210.118L248.396 210.073C248.36 210.033 248.263 209.908 248.106 209.698C247.957 209.473 247.816 209.184 247.683 208.829C247.558 208.46 247.518 208.029 247.562 207.539C247.591 207.039 247.773 206.499 248.108 205.917C248.897 204.545 249.903 203.814 251.127 203.723C252.35 203.633 253.67 203.995 255.087 204.811C256.504 205.626 257.461 206.584 257.96 207.684C258.443 208.776 258.303 209.986 257.539 211.313ZM255.216 210.9C255.577 210.274 255.724 209.723 255.66 209.249C255.588 208.752 255.378 208.323 255.029 207.964C254.674 207.581 254.265 207.256 253.803 206.99C253.341 206.724 252.865 206.55 252.377 206.467C251.882 206.361 251.409 206.407 250.958 206.604C250.492 206.793 250.083 207.193 249.732 207.804C249.251 208.639 249.169 209.386 249.485 210.045C249.786 210.694 250.324 211.242 251.1 211.688C251.905 212.152 252.676 212.347 253.413 212.275C254.135 212.193 254.736 211.735 255.216 210.9Z" fill="white"/>
<path d="M260.433 205.766L251.238 200.476L252.46 198.351L255.101 199.662C254.765 199.349 254.476 198.955 254.234 198.478C253.985 197.978 253.867 197.424 253.88 196.815C253.886 196.184 254.104 195.495 254.533 194.749L254.726 194.414L257.276 195.881L257.083 196.216C256.345 197.499 256.039 198.514 256.165 199.261C256.276 200 256.816 200.649 257.786 201.206L261.745 203.484L260.433 205.766Z" fill="white"/>
<path d="M266.756 195.293C266.027 196.561 265.075 197.214 263.901 197.254C262.727 197.293 261.439 196.909 260.037 196.103C258.62 195.287 257.633 194.363 257.077 193.328C256.515 192.27 256.594 191.114 257.315 189.862C257.727 189.146 258.179 188.652 258.673 188.38C259.152 188.1 259.601 187.941 260.019 187.904C260.438 187.867 260.734 187.869 260.909 187.91L260.935 187.865L259.1 186.809L260.452 184.46L269.647 189.75L268.514 191.719L266.797 191.237L266.771 191.282C266.879 191.404 267.011 191.658 267.166 192.045C267.314 192.408 267.383 192.875 267.373 193.445C267.356 193.991 267.151 194.607 266.756 195.293ZM265.372 193.247C265.853 192.411 265.914 191.702 265.555 191.118C265.189 190.511 264.619 189.984 263.843 189.538C263.023 189.066 262.274 188.833 261.595 188.84C260.916 188.847 260.341 189.26 259.869 190.08C259.534 190.662 259.399 191.19 259.464 191.664C259.537 192.123 259.744 192.54 260.085 192.914C260.419 193.265 260.839 193.587 261.346 193.878C261.854 194.17 262.35 194.376 262.836 194.497C263.331 194.603 263.796 194.573 264.229 194.405C264.657 194.215 265.038 193.828 265.372 193.247Z" fill="white"/>
<path d="M265.01 176.538L266.297 174.301L266.677 174.519L273.677 182.745L271.85 185.922L261.242 184.018L260.84 183.786L262.101 181.594L270.897 183.23L270.923 183.185L265.01 176.538Z" fill="white"/>
<path d="M276.306 178.175L267.156 172.911L268.276 170.965L270.441 171.704L270.467 171.659C270.431 171.619 270.341 171.498 270.199 171.297C270.05 171.072 269.913 170.775 269.789 170.405C269.672 170.021 269.636 169.583 269.68 169.093C269.718 168.578 269.909 168.023 270.252 167.426C270.724 166.606 271.253 166.067 271.838 165.808C272.424 165.549 273.026 165.469 273.644 165.567C274.248 165.656 274.831 165.833 275.394 166.097C275.957 166.361 276.454 166.617 276.887 166.866L281.339 169.428L280.052 171.665L275.577 169.091C275.085 168.807 274.612 168.595 274.158 168.453C273.689 168.302 273.249 168.307 272.839 168.468C272.422 168.605 272.051 168.958 271.725 169.524C271.382 170.121 271.254 170.653 271.342 171.121C271.431 171.588 271.657 172.006 272.021 172.374C272.37 172.734 272.783 173.051 273.26 173.326L277.645 175.848L276.306 178.175Z" fill="white"/>
<path d="M284.341 164.728C283.611 165.996 282.659 166.649 281.486 166.688C280.312 166.728 279.024 166.344 277.622 165.537C276.205 164.722 275.218 163.797 274.662 162.763C274.1 161.705 274.179 160.549 274.899 159.296C275.311 158.58 275.764 158.087 276.258 157.815C276.737 157.535 277.186 157.376 277.604 157.339C278.022 157.301 278.319 157.303 278.494 157.344L278.52 157.3L276.685 156.244L278.037 153.895L287.232 159.185L286.099 161.154L284.381 160.672L284.355 160.717C284.464 160.839 284.596 161.093 284.75 161.48C284.899 161.843 284.968 162.31 284.957 162.879C284.941 163.426 284.735 164.042 284.341 164.728ZM282.957 162.681C283.438 161.846 283.498 161.137 283.139 160.553C282.774 159.946 282.204 159.419 281.428 158.973C280.608 158.501 279.858 158.268 279.18 158.275C278.501 158.281 277.925 158.695 277.454 159.515C277.119 160.097 276.984 160.625 277.049 161.099C277.122 161.558 277.329 161.975 277.669 162.349C278.003 162.7 278.424 163.021 278.931 163.313C279.438 163.605 279.935 163.811 280.421 163.932C280.916 164.038 281.38 164.008 281.814 163.84C282.241 163.649 282.622 163.263 282.957 162.681Z" fill="white"/>
<path d="M263.536 252.13L254.341 246.84L255.564 244.715L258.204 246.026C257.868 245.713 257.579 245.318 257.337 244.842C257.089 244.342 256.971 243.787 256.983 243.179C256.989 242.548 257.207 241.859 257.636 241.113L257.829 240.777L260.379 242.245L260.186 242.58C259.448 243.863 259.142 244.878 259.268 245.625C259.379 246.364 259.919 247.012 260.889 247.57L264.849 249.848L263.536 252.13Z" fill="white"/>
<path d="M269.859 241.657C269.13 242.925 268.178 243.578 267.004 243.618C265.83 243.657 264.542 243.273 263.14 242.467C261.723 241.651 260.737 240.727 260.181 239.692C259.618 238.634 259.697 237.478 260.418 236.225C260.83 235.51 261.283 235.016 261.777 234.744C262.255 234.464 262.704 234.305 263.123 234.268C263.541 234.231 263.838 234.232 264.013 234.274L264.038 234.229L262.204 233.173L263.555 230.824L272.75 236.114L271.618 238.083L269.9 237.601L269.874 237.646C269.983 237.768 270.114 238.022 270.269 238.409C270.417 238.772 270.486 239.239 270.476 239.808C270.459 240.355 270.254 240.971 269.859 241.657ZM268.476 239.611C268.956 238.775 269.017 238.066 268.658 237.482C268.293 236.875 267.722 236.348 266.947 235.902C266.126 235.43 265.377 235.197 264.698 235.204C264.019 235.21 263.444 235.624 262.972 236.444C262.637 237.026 262.503 237.554 262.567 238.028C262.641 238.487 262.848 238.904 263.188 239.278C263.522 239.629 263.943 239.95 264.45 240.242C264.957 240.534 265.453 240.74 265.94 240.861C266.435 240.967 266.899 240.937 267.333 240.769C267.76 240.578 268.141 240.192 268.476 239.611Z" fill="white"/>
<path d="M276.103 230.804C275.88 231.192 275.564 231.585 275.155 231.985C274.755 232.371 274.296 232.702 273.779 232.98C273.27 233.243 272.726 233.397 272.145 233.44C271.558 233.459 270.974 233.302 270.392 232.967L271.602 230.864C271.632 230.881 271.74 230.934 271.928 231.022C272.101 231.102 272.329 231.153 272.613 231.178C272.89 231.179 273.188 231.092 273.507 230.918C273.825 230.744 274.13 230.403 274.422 229.896C274.765 229.299 274.918 228.792 274.881 228.374C274.829 227.946 274.661 227.651 274.378 227.488C274.05 227.3 273.715 227.295 273.373 227.476C273.024 227.633 272.666 227.893 272.298 228.257C271.93 228.621 271.544 229.015 271.142 229.438C270.733 229.838 270.3 230.195 269.842 230.507C269.393 230.804 268.912 230.984 268.4 231.047C267.873 231.101 267.318 230.961 266.736 230.626C265.886 230.137 265.442 229.425 265.404 228.49C265.352 227.546 265.63 226.545 266.239 225.486C266.668 224.74 267.187 224.116 267.794 223.611C268.387 223.099 269.048 222.795 269.779 222.698C270.494 222.594 271.254 222.773 272.06 223.237L270.85 225.34C270.396 225.059 269.993 224.966 269.64 225.061C269.282 225.132 268.963 225.306 268.685 225.583C268.415 225.845 268.194 226.125 268.023 226.423C267.714 226.96 267.575 227.426 267.606 227.821C267.63 228.192 267.792 228.464 268.09 228.635C268.433 228.833 268.779 228.853 269.127 228.696C269.469 228.516 269.824 228.243 270.192 227.88C270.569 227.501 270.962 227.111 271.371 226.711C271.773 226.288 272.203 225.92 272.661 225.607C273.127 225.28 273.616 225.085 274.129 225.023C274.635 224.937 275.179 225.061 275.76 225.396C276.64 225.902 277.086 226.645 277.099 227.624C277.104 228.581 276.773 229.64 276.103 230.804Z" fill="white"/>
<path d="M273.455 213.616L274.742 211.379L275.123 211.598L282.123 219.824L280.295 223L269.688 221.097L269.285 220.865L270.546 218.672L279.342 220.309L279.368 220.264L273.455 213.616Z" fill="white"/>
<path d="M276.099 207.417C275.807 207.924 275.49 208.198 275.149 208.24C274.801 208.258 274.448 208.164 274.09 207.959C273.732 207.753 273.481 207.499 273.337 207.198C273.201 206.881 273.279 206.47 273.571 205.963C273.845 205.485 274.149 205.233 274.482 205.206C274.815 205.18 275.161 205.269 275.519 205.475C275.877 205.681 276.135 205.939 276.294 206.249C276.438 206.55 276.373 206.94 276.099 207.417ZM276.11 209.002L277.423 206.72L288.43 213.052C289.235 213.516 289.71 214.037 289.853 214.616C290.005 215.179 289.871 215.827 289.451 216.558L288.524 218.168L286.757 217.152L287.632 215.63L276.11 209.002Z" fill="white"/>
<path d="M290.488 205.8C289.879 206.859 289.158 207.595 288.324 208.009C287.484 208.399 286.619 208.557 285.73 208.481C284.834 208.383 283.986 208.114 283.187 207.674C282.254 207.157 281.532 206.513 281.022 205.743C280.506 204.95 280.239 204.102 280.223 203.199C280.2 202.273 280.454 201.347 280.986 200.422C281.458 199.602 282.058 198.974 282.785 198.539C283.52 198.089 284.328 197.858 285.207 197.848C286.071 197.829 286.948 198.066 287.836 198.557C287.866 198.574 287.948 198.621 288.083 198.698C288.217 198.776 288.329 198.84 288.418 198.892L284.57 205.581C285.42 206.07 286.196 206.239 286.899 206.087C287.586 205.927 288.141 205.481 288.561 204.751C288.887 204.184 289.016 203.632 288.947 203.097C288.887 202.546 288.647 202.1 288.227 201.759L289.501 199.545C290.411 200.207 290.991 201.096 291.242 202.213C291.477 203.322 291.226 204.517 290.488 205.8ZM283.579 204.922L286.076 200.581C285.963 200.536 285.778 200.479 285.52 200.41C285.27 200.326 284.983 200.29 284.659 200.302C284.343 200.299 284.021 200.392 283.694 200.581C283.367 200.77 283.075 201.088 282.817 201.535C282.474 202.132 282.339 202.66 282.413 203.119C282.48 203.555 282.639 203.934 282.89 204.257C283.134 204.556 283.364 204.778 283.579 204.922Z" fill="white"/>
<path d="M295.476 196.612C295.056 197.343 294.559 197.792 293.987 197.959C293.423 198.111 292.738 197.955 291.933 197.492L286.631 194.441L285.833 195.829L284.222 194.902C284.471 194.469 284.619 194.108 284.667 193.818C284.715 193.528 284.605 193.236 284.337 192.943C284.069 192.65 283.569 192.293 282.838 191.872L283.894 190.038L286.243 191.389L287.453 189.286L289.063 190.213L287.854 192.316L293.648 195.65L294.884 193.502L296.673 194.532L295.476 196.612Z" fill="white"/>
<path d="M299.699 189.79C298.97 191.058 298.018 191.711 296.844 191.751C295.67 191.79 294.382 191.406 292.98 190.6C291.563 189.785 290.577 188.86 290.02 187.825C289.458 186.767 289.537 185.611 290.258 184.359C290.67 183.643 291.123 183.149 291.616 182.877C292.095 182.597 292.544 182.438 292.962 182.401C293.381 182.364 293.678 182.366 293.852 182.407L293.878 182.362L292.044 181.306L293.395 178.957L302.59 184.247L301.457 186.216L299.74 185.734L299.714 185.779C299.822 185.901 299.954 186.155 300.109 186.542C300.257 186.905 300.326 187.372 300.316 187.942C300.299 188.488 300.094 189.104 299.699 189.79ZM298.316 187.744C298.796 186.908 298.857 186.199 298.498 185.615C298.133 185.008 297.562 184.481 296.787 184.035C295.966 183.563 295.217 183.331 294.538 183.337C293.859 183.344 293.284 183.757 292.812 184.577C292.477 185.159 292.342 185.687 292.407 186.161C292.481 186.62 292.687 187.037 293.028 187.411C293.362 187.762 293.782 188.084 294.29 188.375C294.797 188.667 295.293 188.873 295.78 188.994C296.274 189.1 296.739 189.07 297.172 188.902C297.6 188.712 297.981 188.325 298.316 187.744Z" fill="white"/>
</g>
</svg>
