<svg width="147" height="40" viewBox="0 0 147 40" fill="none" xmlns="http://www.w3.org/2000/svg">
<path d="M54.9227 24.9288H52V11.4547H57.6038C59.1335 11.4547 60.3332 11.8456 61.2028 12.6274C62.0723 13.3933 62.5071 14.542 62.5071 16.0737C62.5071 17.414 62.0562 18.467 61.1544 19.2329C60.2688 19.9827 59.0852 20.3577 57.6038 20.3577H54.9227V24.9288ZM57.1932 13.8001H54.9227V18.2995H57.1932C57.9661 18.2995 58.6021 18.116 59.1013 17.749C59.6166 17.3661 59.8743 16.7997 59.8743 16.0498C59.8743 15.284 59.6247 14.7175 59.1255 14.3506C58.6263 13.9836 57.9822 13.8001 57.1932 13.8001Z" fill="black"/>
<path d="M68.5439 25.1682C67.3845 25.1682 66.4264 24.9528 65.6696 24.522C64.9127 24.0912 64.3411 23.4929 63.9546 22.727C63.5843 21.9612 63.3991 21.0916 63.3991 20.1184C63.3669 18.6505 63.7856 17.4379 64.6551 16.4806C65.5247 15.5233 66.8209 15.0446 68.5439 15.0446C70.2186 15.0446 71.4907 15.5073 72.3603 16.4327C73.2298 17.3581 73.6646 18.5867 73.6646 20.1184C73.6646 21.0757 73.4794 21.9373 73.1091 22.7031C72.7387 23.453 72.1751 24.0513 71.4183 24.4981C70.6615 24.9448 69.7033 25.1682 68.5439 25.1682ZM68.5439 22.751C69.2041 22.751 69.6953 22.6153 70.0173 22.3441C70.3555 22.0729 70.5809 21.7298 70.6937 21.315C70.8064 20.8842 70.8627 20.4534 70.8627 20.0226C70.8627 19.5759 70.8064 19.1451 70.6937 18.7303C70.5809 18.2995 70.3555 17.9485 70.0173 17.6772C69.6953 17.39 69.2041 17.2464 68.5439 17.2464C67.8837 17.2464 67.3845 17.39 67.0464 17.6772C66.7082 17.9485 66.4828 18.2995 66.3701 18.7303C66.2573 19.1451 66.201 19.5759 66.201 20.0226C66.201 20.4534 66.2573 20.8842 66.3701 21.315C66.4828 21.7298 66.7082 22.0729 67.0464 22.3441C67.3845 22.6153 67.8837 22.751 68.5439 22.751Z" fill="black"/>
<path d="M81.8401 25.1682C81.2443 25.1682 80.7451 25.0804 80.3425 24.9049C79.956 24.7294 79.642 24.53 79.4005 24.3066C79.159 24.0832 78.9818 23.8838 78.8691 23.7083C78.7725 23.5168 78.7242 23.4051 78.7242 23.3732H78.6759V29.5H75.6566V15.0686H78.2169L78.6759 17.031H78.7242C78.7242 17.0151 78.7725 16.9114 78.8691 16.7199C78.9657 16.5125 79.1267 16.2812 79.3522 16.0259C79.5776 15.7706 79.8916 15.5472 80.2942 15.3558C80.6968 15.1643 81.2121 15.0686 81.8401 15.0686C83.3215 15.0686 84.3682 15.5313 84.9801 16.4567C85.592 17.3821 85.898 18.6266 85.898 20.1902C85.898 21.7378 85.584 22.9584 84.956 23.8519C84.3441 24.7294 83.3054 25.1682 81.8401 25.1682ZM80.8981 22.751C81.5261 22.751 81.993 22.6313 82.299 22.392C82.6211 22.1367 82.8304 21.8176 82.927 21.4347C83.0397 21.0358 83.0961 20.613 83.0961 20.1662C83.0961 19.7354 83.0397 19.3286 82.927 18.9457C82.8143 18.5468 82.5969 18.2277 82.2748 17.9884C81.9528 17.7331 81.4858 17.6054 80.8739 17.6054C79.9882 17.6054 79.4005 17.8607 79.1106 18.3713C78.8208 18.8659 78.6759 19.4642 78.6759 20.1662C78.6759 20.8842 78.8208 21.4985 79.1106 22.0091C79.4166 22.5037 80.0124 22.751 80.8981 22.751Z" fill="black"/>
<path d="M87.4916 24.9288V15.0686H90.2452L90.4384 17.8448C90.535 17.4299 90.7202 17.0071 90.9939 16.5763C91.2677 16.1455 91.6622 15.7865 92.1775 15.4994C92.6928 15.2122 93.3611 15.0686 94.1823 15.0686H94.4722V18.2755H94.1581C92.8699 18.2755 91.9199 18.4511 91.3079 18.8021C90.7121 19.1371 90.4142 19.8152 90.4142 20.8364V24.9288H87.4916Z" fill="black"/>
<path d="M99.4345 25.1682C98.0658 25.1682 97.1077 24.7135 96.5602 23.804C96.0127 22.8786 95.7389 21.658 95.7389 20.1423C95.7389 18.6106 96.0127 17.3821 96.5602 16.4567C97.1238 15.5153 98.0819 15.0446 99.4345 15.0446C100.046 15.0446 100.554 15.1324 100.956 15.3079C101.359 15.4674 101.681 15.6669 101.922 15.9062C102.164 16.1455 102.333 16.3689 102.43 16.5763C102.542 16.7678 102.615 16.8875 102.647 16.9353H102.695V15.0686H105.69V24.9288H103.154L102.695 23.445H102.647C102.615 23.5248 102.494 23.7083 102.285 23.9955C102.091 24.2667 101.761 24.53 101.294 24.7853C100.844 25.0405 100.224 25.1682 99.4345 25.1682ZM100.642 22.751C101.222 22.751 101.657 22.6313 101.947 22.392C102.236 22.1526 102.43 21.8415 102.526 21.4586C102.623 21.0597 102.671 20.6289 102.671 20.1662C102.671 19.6876 102.623 19.2568 102.526 18.8739C102.43 18.475 102.236 18.1639 101.947 17.9405C101.657 17.7012 101.222 17.5815 100.642 17.5815C100.063 17.5815 99.6197 17.7012 99.3138 17.9405C99.0239 18.1798 98.8307 18.4989 98.734 18.8978C98.6374 19.2807 98.5891 19.7035 98.5891 20.1662C98.5891 20.6289 98.6374 21.0597 98.734 21.4586C98.8307 21.8415 99.0239 22.1526 99.3138 22.392C99.6197 22.6313 100.063 22.751 100.642 22.751Z" fill="black"/>
<path d="M114.14 15.0686H116.99V15.4754L113.729 24.9288H109.695L106.41 15.4994V15.0686H109.236L111.724 22.5356H111.772L114.14 15.0686Z" fill="black"/>
<path d="M120.368 13.9437C119.772 13.9597 119.37 13.8241 119.16 13.5369C118.967 13.2337 118.871 12.8747 118.871 12.4599C118.871 12.061 118.967 11.718 119.16 11.4308C119.37 11.1436 119.772 11 120.368 11C120.948 11 121.334 11.1436 121.528 11.4308C121.737 11.718 121.842 12.061 121.842 12.4599C121.842 12.8907 121.737 13.2497 121.528 13.5369C121.334 13.8081 120.948 13.9437 120.368 13.9437ZM118.919 24.9288V15.0686H121.842V24.9288H118.919Z" fill="black"/>
<path d="M125.577 24.9288C124.901 24.9288 124.45 24.7693 124.224 24.4502C123.999 24.1151 123.886 23.7163 123.886 23.2536C123.886 22.8228 123.999 22.4478 124.224 22.1287C124.466 21.8096 124.917 21.6501 125.577 21.6501C126.221 21.6501 126.656 21.8096 126.881 22.1287C127.107 22.4478 127.22 22.8228 127.22 23.2536C127.22 23.7322 127.107 24.1311 126.881 24.4502C126.656 24.7693 126.221 24.9288 125.577 24.9288Z" fill="black"/>
<path d="M133.054 24.9288C132.184 24.9288 131.508 24.7214 131.025 24.3066C130.542 23.8918 130.3 23.1738 130.3 22.1527V17.055H128.875V15.0686C129.294 15.0686 129.632 15.0207 129.89 14.925C130.163 14.8133 130.365 14.5819 130.493 14.2309C130.638 13.8639 130.711 13.3055 130.711 12.5556H133.03V15.0686H135.3V17.055H133.03V22.7031H135.348V24.9288H133.054Z" fill="black"/>
<path d="M141.879 25.1682C140.72 25.1682 139.762 24.9528 139.005 24.522C138.248 24.0912 137.676 23.4929 137.29 22.727C136.92 21.9612 136.734 21.0916 136.734 20.1184C136.702 18.6505 137.121 17.4379 137.99 16.4806C138.86 15.5233 140.156 15.0446 141.879 15.0446C143.554 15.0446 144.826 15.5073 145.696 16.4327C146.565 17.3581 147 18.5867 147 20.1184C147 21.0757 146.815 21.9373 146.444 22.7031C146.074 23.453 145.51 24.0513 144.754 24.4981C143.997 24.9448 143.039 25.1682 141.879 25.1682ZM141.879 22.751C142.54 22.751 143.031 22.6153 143.353 22.3441C143.691 22.0729 143.916 21.7298 144.029 21.315C144.142 20.8842 144.198 20.4534 144.198 20.0226C144.198 19.5759 144.142 19.1451 144.029 18.7303C143.916 18.2995 143.691 17.9485 143.353 17.6772C143.031 17.39 142.54 17.2464 141.879 17.2464C141.219 17.2464 140.72 17.39 140.382 17.6772C140.044 17.9485 139.818 18.2995 139.705 18.7303C139.593 19.1451 139.536 19.5759 139.536 20.0226C139.536 20.4534 139.593 20.8842 139.705 21.315C139.818 21.7298 140.044 22.0729 140.382 22.3441C140.72 22.6153 141.219 22.751 141.879 22.751Z" fill="black"/>
<g clip-path="url(#clip0)">
<path fill-rule="evenodd" clip-rule="evenodd" d="M19.9985 -0.000610352C29.4072 -0.000610352 37.042 7.63624 37.042 17.0428C37.042 19.4501 35.9255 23.4675 34.2663 26.1124C29.435 33.8021 19.9985 39.9106 19.9985 39.9106C19.9985 39.9106 10.5655 33.8035 5.7342 26.1144C4.07159 23.4685 2.95508 19.4508 2.95508 17.0428C2.95508 7.63624 10.5933 -0.000610352 19.9985 -0.000610352ZM27.8733 20.7162L25.6924 18.5357C26.5168 16.3733 26.0577 13.8324 24.3185 12.0915C22.489 10.2644 19.7829 9.85014 17.5533 10.8491L20.409 13.7016C21.2368 14.5416 21.2333 15.8971 20.3985 16.7329C19.5603 17.5691 18.2072 17.5722 17.3655 16.7433L14.5133 13.8908C13.5151 16.1173 13.929 18.8261 15.7551 20.6536C17.4977 22.3945 20.0368 22.8525 22.2003 22.0282L24.3811 24.2087C23.0837 24.9325 21.5881 25.3454 19.9985 25.3454C15.0246 25.3454 10.9898 21.3079 10.9898 16.3353C10.9898 11.3625 15.0246 7.32493 19.9985 7.32493C24.9724 7.32493 29.0107 11.3625 29.0107 16.3353C29.0107 17.9249 28.5968 19.4192 27.8733 20.7162Z" fill="url(#paint0_linear)"/>
</g>
<defs>
<linearGradient id="paint0_linear" x1="8.76459" y1="27.2569" x2="38.5793" y2="-0.0868588" gradientUnits="userSpaceOnUse">
<stop stop-color="#DD310C"/>
<stop offset="1" stop-color="#FC7E37"/>
</linearGradient>
<clipPath id="clip0">
<rect width="40" height="40" fill="white"/>
</clipPath>
</defs>
</svg>
