<svg width="125" height="30" viewBox="0 0 125 30" fill="none" xmlns="http://www.w3.org/2000/svg">
<path d="M44.5277 19.0466H42V7.39327H46.8465C48.1696 7.39327 49.2071 7.73135 49.9591 8.4075C50.7112 9.06986 51.0872 10.0634 51.0872 11.3881C51.0872 12.5472 50.6973 13.458 49.9174 14.1203C49.1514 14.7689 48.1278 15.0931 46.8465 15.0931H44.5277V19.0466ZM46.4914 9.42173H44.5277V13.3131H46.4914C47.1599 13.3131 47.71 13.1544 48.1417 12.837C48.5874 12.5058 48.8102 12.016 48.8102 11.3674C48.8102 10.705 48.5943 10.2152 48.1626 9.8978C47.7309 9.58042 47.1738 9.42173 46.4914 9.42173Z" fill="white"/>
<path d="M56.3083 19.2536C55.3055 19.2536 54.4769 19.0673 53.8223 18.6947C53.1678 18.3221 52.6734 17.8047 52.3391 17.1423C52.0188 16.4799 51.8587 15.7279 51.8587 14.8862C51.8308 13.6166 52.1929 12.5679 52.945 11.74C53.697 10.912 54.8181 10.4981 56.3083 10.4981C57.7566 10.4981 58.8569 10.8982 59.6089 11.6986C60.361 12.4989 60.737 13.5614 60.737 14.8862C60.737 15.7141 60.5768 16.4592 60.2565 17.1216C59.9362 17.7702 59.4487 18.2876 58.7942 18.674C58.1396 19.0604 57.311 19.2536 56.3083 19.2536ZM56.3083 17.163C56.8793 17.163 57.304 17.0457 57.5826 16.8111C57.875 16.5765 58.07 16.2799 58.1675 15.9211C58.265 15.5485 58.3137 15.1759 58.3137 14.8034C58.3137 14.417 58.265 14.0444 58.1675 13.6856C58.07 13.3131 57.875 13.0095 57.5826 12.7749C57.304 12.5265 56.8793 12.4023 56.3083 12.4023C55.7373 12.4023 55.3055 12.5265 55.0131 12.7749C54.7206 13.0095 54.5256 13.3131 54.4282 13.6856C54.3307 14.0444 54.2819 14.417 54.2819 14.8034C54.2819 15.1759 54.3307 15.5485 54.4282 15.9211C54.5256 16.2799 54.7206 16.5765 55.0131 16.8111C55.3055 17.0457 55.7373 17.163 56.3083 17.163Z" fill="white"/>
<path d="M67.8076 19.2536C67.2923 19.2536 66.8606 19.1777 66.5124 19.0259C66.1782 18.8741 65.9066 18.7016 65.6977 18.5084C65.4888 18.3152 65.3356 18.1427 65.2381 17.9909C65.1546 17.8254 65.1128 17.7288 65.1128 17.7012H65.071V23H62.4598V10.5188H64.6741L65.071 12.216H65.1128C65.1128 12.2022 65.1546 12.1125 65.2381 11.947C65.3217 11.7676 65.461 11.5675 65.6559 11.3467C65.8509 11.1259 66.1225 10.9327 66.4707 10.7671C66.8188 10.6016 67.2645 10.5188 67.8076 10.5188C69.0889 10.5188 69.9941 10.9189 70.5233 11.7193C71.0526 12.5196 71.3172 13.5959 71.3172 14.9483C71.3172 16.2868 71.0456 17.3424 70.5025 18.1151C69.9732 18.8741 69.075 19.2536 67.8076 19.2536ZM66.9929 17.163C67.5361 17.163 67.9399 17.0595 68.2045 16.8525C68.4831 16.6317 68.6641 16.3558 68.7477 16.0246C68.8452 15.6796 68.8939 15.3139 68.8939 14.9276C68.8939 14.555 68.8452 14.2031 68.7477 13.8719C68.6502 13.527 68.4622 13.251 68.1836 13.044C67.9051 12.8232 67.5012 12.7128 66.972 12.7128C66.2061 12.7128 65.6977 12.9336 65.447 13.3752C65.1964 13.8029 65.071 14.3204 65.071 14.9276C65.071 15.5485 65.1964 16.0798 65.447 16.5213C65.7117 16.9491 66.2269 17.163 66.9929 17.163Z" fill="white"/>
<path d="M72.6954 19.0466V10.5188H75.0769L75.244 12.9198C75.3276 12.561 75.4877 12.1953 75.7245 11.8228C75.9613 11.4502 76.3025 11.1397 76.7481 10.8913C77.1938 10.6429 77.7717 10.5188 78.482 10.5188H78.7327V13.2924H78.4611C77.347 13.2924 76.5253 13.4442 75.9961 13.7477C75.4808 14.0375 75.2231 14.624 75.2231 15.5071V19.0466H72.6954Z" fill="white"/>
<path d="M83.0245 19.2536C81.8407 19.2536 81.012 18.8603 80.5385 18.0737C80.065 17.2734 79.8283 16.2178 79.8283 14.9069C79.8283 13.5821 80.065 12.5196 80.5385 11.7193C81.026 10.9051 81.8546 10.4981 83.0245 10.4981C83.5537 10.4981 83.9924 10.574 84.3405 10.7257C84.6887 10.8637 84.9672 11.0362 85.1761 11.2432C85.385 11.4502 85.5313 11.6434 85.6148 11.8228C85.7123 11.9884 85.775 12.0918 85.8028 12.1332H85.8446V10.5188H88.435V19.0466H86.2415L85.8446 17.7633H85.8028C85.775 17.8323 85.6705 17.9909 85.4895 18.2393C85.3224 18.4739 85.0369 18.7016 84.633 18.9224C84.243 19.1432 83.7069 19.2536 83.0245 19.2536ZM84.069 17.163C84.5703 17.163 84.9463 17.0595 85.197 16.8525C85.4477 16.6455 85.6148 16.3765 85.6984 16.0453C85.7819 15.7003 85.8237 15.3277 85.8237 14.9276C85.8237 14.5136 85.7819 14.141 85.6984 13.8098C85.6148 13.4649 85.4477 13.1958 85.197 13.0026C84.9463 12.7956 84.5703 12.6921 84.069 12.6921C83.5676 12.6921 83.1846 12.7956 82.92 13.0026C82.6693 13.2096 82.5022 13.4856 82.4186 13.8305C82.3351 14.1617 82.2933 14.5274 82.2933 14.9276C82.2933 15.3277 82.3351 15.7003 82.4186 16.0453C82.5022 16.3765 82.6693 16.6455 82.92 16.8525C83.1846 17.0595 83.5676 17.163 84.069 17.163Z" fill="white"/>
<path d="M95.7423 10.5188H98.2073V10.8706L95.3872 19.0466H91.8985L89.0575 10.8913V10.5188H91.5016L93.6533 16.9767H93.6951L95.7423 10.5188Z" fill="white"/>
<path d="M101.129 9.54592C100.614 9.55972 100.266 9.44243 100.085 9.19405C99.9175 8.93187 99.834 8.62139 99.834 8.26261C99.834 7.91764 99.9175 7.62096 100.085 7.37257C100.266 7.12419 100.614 7 101.129 7C101.631 7 101.965 7.12419 102.132 7.37257C102.313 7.62096 102.403 7.91764 102.403 8.26261C102.403 8.63519 102.313 8.94567 102.132 9.19405C101.965 9.42863 101.631 9.54592 101.129 9.54592ZM99.8758 19.0466V10.5188H102.403V19.0466H99.8758Z" fill="white"/>
<path d="M105.634 19.0466C105.049 19.0466 104.659 18.9086 104.464 18.6326C104.269 18.3428 104.172 17.9978 104.172 17.5977C104.172 17.2251 104.269 16.9008 104.464 16.6248C104.673 16.3489 105.063 16.2109 105.634 16.2109C106.191 16.2109 106.567 16.3489 106.762 16.6248C106.957 16.9008 107.055 17.2251 107.055 17.5977C107.055 18.0116 106.957 18.3566 106.762 18.6326C106.567 18.9086 106.191 19.0466 105.634 19.0466Z" fill="white"/>
<path d="M112.101 19.0466C111.349 19.0466 110.764 18.8672 110.346 18.5084C109.928 18.1496 109.719 17.5287 109.719 16.6455V12.2367H108.487V10.5188C108.849 10.5188 109.141 10.4774 109.364 10.3946C109.601 10.298 109.775 10.0979 109.886 9.79431C110.012 9.47693 110.074 8.99396 110.074 8.34541H112.08V10.5188H114.043V12.2367H112.08V17.1216H114.085V19.0466H112.101Z" fill="white"/>
<path d="M119.733 19.2536C118.731 19.2536 117.902 19.0673 117.248 18.6947C116.593 18.3221 116.099 17.8047 115.764 17.1423C115.444 16.4799 115.284 15.7279 115.284 14.8862C115.256 13.6166 115.618 12.5679 116.37 11.74C117.122 10.912 118.243 10.4981 119.733 10.4981C121.182 10.4981 122.282 10.8982 123.034 11.6986C123.786 12.4989 124.162 13.5614 124.162 14.8862C124.162 15.7141 124.002 16.4592 123.682 17.1216C123.361 17.7702 122.874 18.2876 122.219 18.674C121.565 19.0604 120.736 19.2536 119.733 19.2536ZM119.733 17.163C120.304 17.163 120.729 17.0457 121.008 16.8111C121.3 16.5765 121.495 16.2799 121.593 15.9211C121.69 15.5485 121.739 15.1759 121.739 14.8034C121.739 14.417 121.69 14.0444 121.593 13.6856C121.495 13.3131 121.3 13.0095 121.008 12.7749C120.729 12.5265 120.304 12.4023 119.733 12.4023C119.162 12.4023 118.731 12.5265 118.438 12.7749C118.146 13.0095 117.951 13.3131 117.853 13.6856C117.756 14.0444 117.707 14.417 117.707 14.8034C117.707 15.1759 117.756 15.5485 117.853 15.9211C117.951 16.2799 118.146 16.5765 118.438 16.8111C118.731 17.0457 119.162 17.163 119.733 17.163Z" fill="white"/>
<g clip-path="url(#clip0)">
<path fill-rule="evenodd" clip-rule="evenodd" d="M14.9991 -0.000366211C22.0557 -0.000366211 27.7817 5.72727 27.7817 12.7822C27.7817 14.5877 26.9443 17.6007 25.7 19.5844C22.0765 25.3517 14.9991 29.933 14.9991 29.933C14.9991 29.933 7.92437 25.3527 4.30089 19.5859C3.05394 17.6015 2.21655 14.5882 2.21655 12.7822C2.21655 5.72727 7.94524 -0.000366211 14.9991 -0.000366211ZM20.9052 15.5372L19.2696 13.9019C19.8878 12.28 19.5435 10.3744 18.2391 9.06874C16.867 7.6984 14.8374 7.3877 13.1652 8.13691L15.307 10.2763C15.9279 10.9063 15.9252 11.9229 15.2991 12.5498C14.6705 13.1769 13.6557 13.1792 13.0244 12.5576L10.8852 10.4182C10.1365 12.088 10.447 14.1197 11.8166 15.4903C13.1235 16.7959 15.0279 17.1395 16.6505 16.5212L18.2861 18.1566C17.313 18.6995 16.1913 19.0091 14.9991 19.0091C11.2687 19.0091 8.24262 15.981 8.24262 12.2516C8.24262 8.52196 11.2687 5.49379 14.9991 5.49379C18.7296 5.49379 21.7583 8.52196 21.7583 12.2516C21.7583 13.4438 21.4478 14.5645 20.9052 15.5372Z" fill="url(#paint0_linear)"/>
</g>
<defs>
<linearGradient id="paint0_linear" x1="6.57369" y1="20.4428" x2="28.9347" y2="-0.0650513" gradientUnits="userSpaceOnUse">
<stop stop-color="#DD310C"/>
<stop offset="1" stop-color="#FC7E37"/>
</linearGradient>
<clipPath id="clip0">
<rect width="30" height="30" fill="white"/>
</clipPath>
</defs>
</svg>
