<svg width="351" height="243" viewBox="0 0 351 243" fill="none" xmlns="http://www.w3.org/2000/svg">
<path fill-rule="evenodd" clip-rule="evenodd" d="M84.7895 182.88L216.687 218.222L230.992 164.835L276.53 177.037L290.835 123.65L71.0065 64.7469L56.7015 118.134L99.0946 129.493L84.7895 182.88ZM28.61 53.3867L42.915 -0.000287273L350.675 82.4639L336.37 135.851L28.61 53.3867Z" fill="#149770"/>
<g opacity="0.5">
<path d="M134.339 94.7413L137.589 82.6145L140.43 83.3758L139.738 86.7955C139.995 86.3161 140.361 85.8661 140.837 85.4455C141.338 85.0106 141.943 84.7087 142.65 84.54C143.383 84.3569 144.248 84.3989 145.245 84.666L145.694 84.7862L144.792 88.1499L144.344 88.0296C142.629 87.5702 141.359 87.525 140.534 87.8941C139.713 88.2436 139.132 89.0576 138.789 90.3362L137.39 95.5587L134.339 94.7413Z" fill="white"/>
<path d="M148.493 98.85C147.417 98.5615 146.634 98.1306 146.147 97.5572C145.659 96.9839 145.363 96.3353 145.258 95.6113C145.173 94.8928 145.195 94.1714 145.325 93.4472C145.46 92.7034 145.607 92.0364 145.765 91.4463L147.425 85.2501L150.386 86.0435L148.726 92.2397C148.562 92.8495 148.467 93.4458 148.439 94.0286C148.411 94.6114 148.541 95.1208 148.831 95.5567C149.14 95.9979 149.693 96.3254 150.491 96.5391C151.268 96.7475 151.901 96.7379 152.39 96.5103C152.883 96.2631 153.271 95.8927 153.553 95.399C153.835 94.9053 154.062 94.3759 154.235 93.8108L155.949 87.5341L159.059 88.3675L155.81 100.494L153.208 99.7971L153.316 97.3594L153.256 97.3434C153.185 97.4507 153.033 97.6207 152.799 97.8534C152.566 98.086 152.248 98.317 151.844 98.5462C151.461 98.7808 150.991 98.9395 150.434 99.0223C149.878 99.1051 149.231 99.0477 148.493 98.85Z" fill="white"/>
<path d="M165.629 103.441C164.871 103.238 164.262 102.959 163.801 102.604C163.366 102.234 163.031 101.849 162.797 101.449C162.582 101.054 162.429 100.708 162.338 100.409C162.267 100.116 162.227 99.9473 162.217 99.9026L162.158 99.8866L160.134 107.44L156.993 106.599L161.689 89.0722L164.351 89.7855L164.148 92.5772L164.208 92.5932C164.244 92.5396 164.358 92.3911 164.552 92.1477C164.765 91.9097 165.056 91.6609 165.425 91.4013C165.814 91.1471 166.299 90.9714 166.88 90.8742C167.467 90.7574 168.15 90.8032 168.927 91.0116C170.761 91.5031 171.922 92.436 172.409 93.8102C172.895 95.1845 172.888 96.806 172.387 98.6746C171.887 100.543 171.077 101.929 169.959 102.831C168.847 103.713 167.403 103.917 165.629 103.441ZM165.381 100.656C166.219 100.88 166.902 100.884 167.43 100.667C167.983 100.436 168.414 100.066 168.721 99.558C169.053 99.0356 169.301 98.4696 169.464 97.8598C169.628 97.25 169.681 96.6528 169.624 96.0683C169.592 95.4695 169.391 94.9414 169.022 94.4841C168.659 94.0072 168.068 93.6592 167.251 93.4401C166.134 93.141 165.244 93.2715 164.581 93.8317C163.924 94.3723 163.458 95.154 163.184 96.1769C162.899 97.2391 162.914 98.1812 163.228 99.0032C163.547 99.8056 164.265 100.356 165.381 100.656Z" fill="white"/>
<path d="M176.939 106.472C175.245 106.018 174.191 105.124 173.779 103.791C173.367 102.458 173.409 100.867 173.904 99.0178C174.405 97.1491 175.167 95.7405 176.19 94.792C177.239 93.8291 178.601 93.572 180.276 94.0208C181.233 94.2773 181.946 94.6475 182.414 95.1315C182.888 95.5958 183.212 96.062 183.386 96.5302C183.56 96.9984 183.65 97.3389 183.657 97.5516L183.717 97.5677L184.365 95.1482L187.506 95.9897L184.256 108.116L181.624 107.411L181.646 105.298L181.586 105.282C181.479 105.443 181.225 105.67 180.826 105.964C180.452 106.243 179.934 106.463 179.271 106.623C178.634 106.768 177.857 106.718 176.939 106.472ZM178.875 104.271C179.992 104.57 180.832 104.427 181.395 103.84C181.984 103.238 182.415 102.426 182.689 101.403C182.979 100.322 183.014 99.3928 182.795 98.6171C182.575 97.8415 181.917 97.3067 180.82 97.0129C180.043 96.8045 179.39 96.8088 178.862 97.0256C178.353 97.2479 177.936 97.6103 177.609 98.113C177.307 98.6013 177.066 99.1799 176.887 99.8487C176.708 100.518 176.624 101.149 176.636 101.742C176.668 102.341 176.848 102.864 177.178 103.31C177.532 103.743 178.098 104.063 178.875 104.271Z" fill="white"/>
<path d="M192.867 110.424L196.1 98.3558L198.702 99.053L198.523 101.756L198.583 101.772C198.618 101.719 198.73 101.58 198.919 101.356C199.132 101.118 199.433 100.872 199.822 100.618C200.23 100.369 200.725 100.196 201.307 100.099C201.914 99.9874 202.616 100.038 203.414 100.252C204.51 100.546 205.3 100.989 205.782 101.583C206.264 102.176 206.545 102.841 206.625 103.579C206.71 104.298 206.688 105.019 206.558 105.744C206.428 106.468 206.287 107.115 206.134 107.685L204.561 113.557L201.57 112.756L203.151 106.855C203.325 106.205 203.423 105.599 203.446 105.036C203.474 104.453 203.331 103.951 203.016 103.53C202.727 103.094 202.204 102.774 201.446 102.571C200.648 102.357 199.993 102.372 199.479 102.613C198.966 102.855 198.553 103.24 198.24 103.768C197.933 104.276 197.695 104.845 197.527 105.474L195.977 111.257L192.867 110.424Z" fill="white"/>
<path d="M210.936 115.582C209.242 115.128 208.188 114.234 207.776 112.901C207.364 111.567 207.406 109.976 207.901 108.127C208.402 106.259 209.164 104.85 210.187 103.901C211.236 102.939 212.598 102.681 214.273 103.13C215.23 103.387 215.943 103.757 216.411 104.241C216.885 104.705 217.209 105.171 217.383 105.64C217.557 106.108 217.647 106.448 217.654 106.661L217.714 106.677L218.362 104.258L221.503 105.099L218.253 117.226L215.621 116.521L215.643 114.408L215.583 114.392C215.476 114.553 215.222 114.78 214.823 115.073C214.449 115.353 213.931 115.572 213.268 115.732C212.631 115.878 211.854 115.827 210.936 115.582ZM212.872 113.381C213.989 113.68 214.829 113.536 215.392 112.949C215.981 112.348 216.412 111.536 216.686 110.513C216.976 109.431 217.011 108.502 216.792 107.727C216.572 106.951 215.914 106.416 214.817 106.122C214.04 105.914 213.387 105.918 212.859 106.135C212.35 106.357 211.933 106.72 211.606 107.222C211.304 107.711 211.063 108.289 210.884 108.958C210.705 109.627 210.621 110.258 210.633 110.852C210.665 111.45 210.845 111.973 211.175 112.42C211.529 112.852 212.095 113.172 212.872 113.381Z" fill="white"/>
<path d="M147.92 128.365C146.763 128.055 145.777 127.549 144.961 126.845C144.151 126.122 143.587 125.233 143.272 124.179C142.961 123.105 142.982 121.909 143.335 120.591C143.728 119.283 144.321 118.23 145.112 117.43C145.923 116.635 146.856 116.105 147.91 115.84C148.984 115.579 150.12 115.609 151.316 115.93C152.532 116.256 153.506 116.77 154.237 117.471C154.993 118.159 155.51 118.941 155.788 119.816C156.072 120.672 156.138 121.502 155.987 122.305L153.176 121.551C153.266 120.015 152.445 119.015 150.71 118.55C149.633 118.262 148.709 118.362 147.937 118.851C147.185 119.345 146.669 120.113 146.39 121.156C146.084 122.297 146.118 123.286 146.492 124.124C146.891 124.948 147.648 125.51 148.765 125.809C149.523 126.012 150.233 125.991 150.897 125.748C151.581 125.509 152.095 125.025 152.44 124.295L155.252 125.049C154.965 125.878 154.473 126.6 153.774 127.214C153.095 127.833 152.254 128.261 151.25 128.499C150.266 128.741 149.156 128.696 147.92 128.365Z" fill="white"/>
<path d="M161.76 132.074C160.344 131.694 159.267 131.089 158.528 130.259C157.814 129.414 157.361 128.471 157.17 127.428C157.005 126.372 157.051 125.32 157.311 124.272C157.618 123.047 158.137 122.027 158.868 121.211C159.625 120.381 160.523 119.82 161.563 119.529C162.628 119.224 163.778 119.237 165.014 119.569C166.111 119.863 167.025 120.36 167.755 121.062C168.506 121.769 169.025 122.625 169.311 123.63C169.603 124.614 169.604 125.69 169.313 126.855C169.302 126.895 169.273 127.003 169.226 127.18C169.178 127.357 169.139 127.505 169.107 127.623L160.164 125.226C159.864 126.348 159.911 127.288 160.306 128.047C160.706 128.787 161.395 129.288 162.372 129.55C163.13 129.753 163.808 129.734 164.406 129.494C165.025 129.259 165.466 128.85 165.729 128.267L168.69 129.06C168.208 130.302 167.359 131.234 166.145 131.857C164.936 132.461 163.474 132.533 161.76 132.074ZM160.618 123.893L166.42 125.448C166.437 125.305 166.445 125.075 166.444 124.759C166.464 124.448 166.416 124.108 166.301 123.74C166.206 123.377 165.998 123.037 165.677 122.719C165.356 122.401 164.896 122.162 164.298 122.002C163.501 121.788 162.848 121.792 162.339 122.014C161.856 122.222 161.467 122.519 161.172 122.903C160.901 123.274 160.717 123.604 160.618 123.893Z" fill="white"/>
<path d="M175.006 135.623C174.488 135.484 173.933 135.241 173.343 134.893C172.772 134.55 172.245 134.124 171.762 133.615C171.298 133.112 170.951 132.534 170.72 131.881C170.514 131.215 170.514 130.498 170.719 129.731L173.53 130.484C173.52 130.523 173.493 130.664 173.45 130.905C173.412 131.127 173.423 131.404 173.483 131.736C173.569 132.054 173.762 132.37 174.063 132.682C174.364 132.995 174.854 133.242 175.532 133.424C176.329 133.637 176.964 133.66 177.437 133.491C177.915 133.303 178.204 133.022 178.304 132.648C178.42 132.216 178.32 131.831 178.004 131.493C177.714 131.141 177.301 130.809 176.765 130.497C176.229 130.184 175.653 129.861 175.037 129.528C174.446 129.18 173.899 128.791 173.394 128.36C172.91 127.935 172.551 127.439 172.319 126.87C172.092 126.283 172.081 125.605 172.287 124.838C172.587 123.717 173.272 122.994 174.342 122.669C175.418 122.325 176.663 122.342 178.079 122.721C179.076 122.989 179.961 123.394 180.734 123.939C181.512 124.464 182.071 125.13 182.41 125.938C182.754 126.726 182.784 127.651 182.5 128.713L179.688 127.96C179.872 127.355 179.853 126.865 179.633 126.49C179.438 126.101 179.138 125.788 178.731 125.553C178.343 125.322 177.951 125.154 177.552 125.047C176.834 124.855 176.251 124.836 175.804 124.99C175.382 125.13 175.118 125.396 175.013 125.79C174.891 126.242 174.976 126.644 175.266 126.996C175.582 127.334 176.008 127.659 176.544 127.971C177.1 128.289 177.673 128.621 178.264 128.969C178.88 129.303 179.44 129.685 179.944 130.115C180.469 130.551 180.847 131.053 181.079 131.621C181.337 132.175 181.363 132.836 181.157 133.603C180.846 134.763 180.126 135.498 178.996 135.807C177.892 136.101 176.562 136.04 175.006 135.623Z" fill="white"/>
<path d="M186.362 138.349C185.385 138.088 184.71 137.654 184.338 137.048C183.986 136.448 183.953 135.617 184.237 134.555L186.111 127.562L184.257 127.065L184.826 124.94C185.404 125.095 185.869 125.157 186.219 125.124C186.57 125.092 186.873 124.878 187.129 124.482C187.384 124.087 187.641 123.407 187.899 122.443L190.352 123.101L189.522 126.199L192.333 126.952L191.764 129.076L188.952 128.323L186.905 135.965L189.776 136.734L189.143 139.095L186.362 138.349Z" fill="white"/>
<path d="M197.076 126.8C196.413 126.643 196.013 126.378 195.878 126.005C195.769 125.617 195.774 125.197 195.896 124.744C196.012 124.311 196.221 123.967 196.525 123.711C196.829 123.455 197.3 123.413 197.938 123.584C198.556 123.749 198.922 124.016 199.037 124.384C199.172 124.758 199.182 125.161 199.066 125.594C198.945 126.046 198.732 126.4 198.429 126.656C198.15 126.898 197.699 126.946 197.076 126.8ZM191.915 139.838L195.165 127.711L198.215 128.528L194.966 140.655L191.915 139.838Z" fill="white"/>
</g>
</svg>
